# xmcd
#
# Track frame offsets:
#	150
#	16188
#	30381
#	52116
#	67592
#	83833
#	100945
#	117154
#	134448
#	161018
#	178321
#	191138
#	206950
#	221433
#	236660
#	252151
#	267219
#	283175
#	301274
#	319245
#
# Disc length: 4537 seconds
#
# Revision: 1
# Processed by: cddbd v1.5.2PL0 Copyright (c) Steve Scherf et al.
# Submitted via: audiograbber 1.83.01
#
DISCID=2311b714
DTITLE=V/A - Euro Exclusive 0726
DYEAR=2007
DGENRE=VARIOUS ARTISTS
TTITLE0=GROOVE ARMADA feat. MUTYA BUENA - SONG 4 MUTYA (OUT OF CONTROL) (EDIT)
TTITLE1=AMY WINEHOUSE - TEARS DRY ON THEIR OWN
TTITLE2=JAMES MORRISON - ONE LAST CHANCE
TTITLE3=JARVIS COCKER - FAT CHILDREN
TTITLE4=JUSTIN NOZUKA - MR. THERAPY MAN
TTITLE5=KATE NASH - FOUNDATIONS (CLEAN EDIT)
TTITLE6=ROSS COPPERMAN - FOUND YOU
TTITLE7=LEE MEAD - ANY DREAM WILL DO
TTITLE8=HAPPY MONDAYS - JELLY BEAN (LP VERSION)
TTITLE9=DOGS - DIRTY LITTLE SHOP
TTITLE10=SIMON WEBBE - RIDE THE STORM
TTITLE11=GARETH GATES - ANGEL ON MY SHOULDER
TTITLE12=BEN WESTBEECH - DANCE WITH ME (RADIO EDIT)
TTITLE13=AIR TRAFFIC - SHOOTING STAR (EDIT)
TTITLE14=SCOUTING FOR GIRLS - IT'S NOT ABOUT YOU
TTITLE15=SIMIAN MOBILE DISCO - I BELIEVE
TTITLE16=DIZEE RASCAL - SIRENS
TTITLE17=PULL TIGER TAIL - HURRICANES
TTITLE18=NAZANIN - SOMEDAY
TTITLE19=THE TWILIGHT SAD - AND SHE WOULD DARKEN THE MEMORY (EDIT)
EXTD=
EXTT0=
EXTT1=
EXTT2=
EXTT3=
EXTT4=
EXTT5=
EXTT6=
EXTT7=
EXTT8=
EXTT9=
EXTT10=
EXTT11=
EXTT12=
EXTT13=
EXTT14=
EXTT15=
EXTT16=
EXTT17=
EXTT18=
EXTT19=
PLAYORDER=
